<svg width="91" height="32" viewBox="0 0 91 32" fill="none" xmlns="http://www.w3.org/2000/svg">
<rect x="0.5" y="0.5" width="90" height="31" rx="15.5" fill="white"/>
<rect x="0.5" y="0.5" width="90" height="31" rx="15.5" stroke="#23222A"/>
<path d="M22.816 20.496H25.12C25.7067 20.496 26.2507 20.3947 26.752 20.192C27.2533 19.9787 27.6907 19.6907 28.064 19.328C28.448 18.9547 28.7413 18.5227 28.944 18.032C29.1573 17.5307 29.264 16.9867 29.264 16.4C29.264 15.824 29.1573 15.2853 28.944 14.784C28.7413 14.2827 28.448 13.8507 28.064 13.488C27.6907 13.1147 27.2533 12.8267 26.752 12.624C26.2507 12.4107 25.7067 12.304 25.12 12.304H22.816V20.496ZM21.136 22V10.8H25.088C25.9307 10.8 26.7093 10.944 27.424 11.232C28.1387 11.5093 28.7627 11.8987 29.296 12.4C29.8293 12.9013 30.2453 13.4933 30.544 14.176C30.8427 14.8587 30.992 15.6 30.992 16.4C30.992 17.2107 30.8427 17.9573 30.544 18.64C30.256 19.312 29.8453 19.8987 29.312 20.4C28.7787 20.9013 28.1493 21.296 27.424 21.584C26.7093 21.8613 25.9307 22 25.088 22H21.136ZM36.473 22.144C35.673 22.144 34.9477 21.9573 34.297 21.584C33.657 21.2107 33.145 20.704 32.761 20.064C32.3877 19.424 32.201 18.7093 32.201 17.92C32.201 17.1413 32.3823 16.4373 32.745 15.808C33.1077 15.168 33.5983 14.6613 34.217 14.288C34.8357 13.904 35.5237 13.712 36.281 13.712C37.0383 13.712 37.7103 13.904 38.297 14.288C38.8837 14.6613 39.3477 15.1733 39.689 15.824C40.041 16.464 40.217 17.1893 40.217 18V18.448H33.801C33.8863 18.896 34.0517 19.296 34.297 19.648C34.553 20 34.873 20.2773 35.257 20.48C35.6517 20.6827 36.0783 20.784 36.537 20.784C36.9317 20.784 37.3103 20.7253 37.673 20.608C38.0463 20.48 38.3557 20.2987 38.601 20.064L39.625 21.072C39.145 21.4347 38.649 21.7067 38.137 21.888C37.6357 22.0587 37.081 22.144 36.473 22.144ZM33.817 17.248H38.633C38.569 16.8213 38.4197 16.448 38.185 16.128C37.961 15.7973 37.6783 15.5413 37.337 15.36C37.0063 15.168 36.6437 15.072 36.249 15.072C35.8437 15.072 35.4703 15.1627 35.129 15.344C34.7877 15.5253 34.4997 15.7813 34.265 16.112C34.041 16.432 33.8917 16.8107 33.817 17.248ZM44.619 22.16C43.915 22.16 43.2537 22.0587 42.635 21.856C42.027 21.6427 41.499 21.344 41.051 20.96L41.931 19.904C42.347 20.2347 42.7737 20.4907 43.211 20.672C43.659 20.8427 44.1123 20.928 44.571 20.928C45.147 20.928 45.6163 20.816 45.979 20.592C46.3417 20.368 46.523 20.0747 46.523 19.712C46.523 19.4133 46.4163 19.1787 46.203 19.008C45.9897 18.8373 45.659 18.72 45.211 18.656L43.739 18.448C42.9283 18.3307 42.3203 18.08 41.915 17.696C41.5097 17.312 41.307 16.8 41.307 16.16C41.307 15.6693 41.4403 15.2427 41.707 14.88C41.9737 14.5067 42.347 14.2187 42.827 14.016C43.307 13.8027 43.867 13.696 44.507 13.696C45.0937 13.696 45.659 13.7813 46.203 13.952C46.747 14.1227 47.2697 14.3893 47.771 14.752L46.955 15.808C46.507 15.5093 46.0697 15.2907 45.643 15.152C45.227 15.0133 44.8057 14.944 44.379 14.944C43.8883 14.944 43.4937 15.0507 43.195 15.264C42.8963 15.4667 42.747 15.7333 42.747 16.064C42.747 16.3627 42.8483 16.5973 43.051 16.768C43.2643 16.928 43.611 17.04 44.091 17.104L45.563 17.312C46.3737 17.4293 46.987 17.68 47.403 18.064C47.819 18.4373 48.027 18.944 48.027 19.584C48.027 20.0747 47.8777 20.5173 47.579 20.912C47.2803 21.296 46.875 21.6 46.363 21.824C45.851 22.048 45.2697 22.16 44.619 22.16ZM49.2565 22V13.856H50.8565V22H49.2565ZM50.0565 12.544C49.7898 12.544 49.5605 12.448 49.3685 12.256C49.1765 12.0533 49.0805 11.8187 49.0805 11.552C49.0805 11.2747 49.1765 11.0453 49.3685 10.864C49.5605 10.672 49.7898 10.576 50.0565 10.576C50.3338 10.576 50.5685 10.672 50.7605 10.864C50.9525 11.0453 51.0485 11.2747 51.0485 11.552C51.0485 11.8187 50.9525 12.0533 50.7605 12.256C50.5685 12.448 50.3338 12.544 50.0565 12.544ZM56.7729 25.424C56.1755 25.424 55.5942 25.3547 55.0289 25.216C54.4635 25.0773 53.9515 24.88 53.4929 24.624L54.1009 23.376C54.5809 23.6213 55.0289 23.7973 55.4449 23.904C55.8715 24.0213 56.2982 24.08 56.7249 24.08C57.4395 24.08 57.9782 23.9147 58.3409 23.584C58.7142 23.2533 58.9009 22.768 58.9009 22.128V21.2C58.1862 21.7653 57.3702 22.048 56.4529 22.048C55.7062 22.048 55.0182 21.8667 54.3889 21.504C53.7702 21.1307 53.2795 20.6293 52.9169 20C52.5542 19.36 52.3729 18.656 52.3729 17.888C52.3729 17.1093 52.5542 16.4053 52.9169 15.776C53.2902 15.136 53.7862 14.6347 54.4049 14.272C55.0342 13.8987 55.7382 13.712 56.5169 13.712C56.9542 13.712 57.3755 13.7867 57.7809 13.936C58.1969 14.0747 58.5755 14.2773 58.9169 14.544V13.856H60.5009V22.128C60.5009 23.184 60.1755 23.9947 59.5249 24.56C58.8849 25.136 57.9675 25.424 56.7729 25.424ZM56.6609 20.672C57.1302 20.672 57.5569 20.592 57.9409 20.432C58.3249 20.2613 58.6449 20.0213 58.9009 19.712V16.064C58.6449 15.7653 58.3195 15.5307 57.9249 15.36C57.5409 15.1893 57.1195 15.104 56.6609 15.104C56.1489 15.104 55.6849 15.2267 55.2689 15.472C54.8635 15.7173 54.5382 16.0533 54.2929 16.48C54.0582 16.896 53.9409 17.3653 53.9409 17.888C53.9409 18.4107 54.0582 18.8853 54.2929 19.312C54.5382 19.728 54.8635 20.0587 55.2689 20.304C55.6849 20.5493 56.1489 20.672 56.6609 20.672ZM62.3815 22V13.856H63.9815V14.688C64.6108 14.0267 65.4268 13.696 66.4295 13.696C67.0588 13.696 67.6082 13.8293 68.0775 14.096C68.5575 14.3627 68.9308 14.736 69.1975 15.216C69.4748 15.696 69.6135 16.2507 69.6135 16.88V22H68.0135V17.152C68.0135 16.512 67.8322 16.0107 67.4695 15.648C67.1175 15.2747 66.6215 15.088 65.9815 15.088C65.5548 15.088 65.1708 15.1787 64.8295 15.36C64.4882 15.5413 64.2055 15.8027 63.9815 16.144V22H62.3815Z" fill="#23222A"/>
</svg>
