<svg width="181" height="62" viewBox="0 0 181 62" fill="none" xmlns="http://www.w3.org/2000/svg">
<g filter="url(#filter0_d_1_55)">
<rect x="8" y="6" width="165" height="46" rx="23" fill="#23222A"/>
<path d="M47.936 35L52.544 23.8H55.216L59.776 35H57.264L56.128 32.056H51.504L50.352 35H47.936ZM52.224 30.2H55.424L53.824 26.072L52.224 30.2ZM63.97 35.112C63.1807 35.112 62.466 34.92 61.826 34.536C61.186 34.152 60.674 33.64 60.29 33C59.9167 32.3493 59.73 31.624 59.73 30.824C59.73 30.024 59.9167 29.304 60.29 28.664C60.674 28.0133 61.1913 27.5013 61.842 27.128C62.4927 26.744 63.2233 26.552 64.034 26.552C64.45 26.552 64.85 26.6107 65.234 26.728C65.618 26.8347 65.9753 26.9947 66.306 27.208V23.8L68.498 23.432V35H66.338V34.312C65.6553 34.8453 64.866 35.112 63.97 35.112ZM64.322 33.24C64.7273 33.24 65.0953 33.1707 65.426 33.032C65.7673 32.8933 66.0607 32.696 66.306 32.44V29.192C66.0607 28.9467 65.7673 28.7547 65.426 28.616C65.0847 28.4773 64.7167 28.408 64.322 28.408C63.8633 28.408 63.4473 28.5147 63.074 28.728C62.7113 28.9307 62.4233 29.2187 62.21 29.592C61.9967 29.9547 61.89 30.3653 61.89 30.824C61.89 31.2827 61.9967 31.6933 62.21 32.056C62.4233 32.4187 62.7113 32.7067 63.074 32.92C63.4473 33.1333 63.8633 33.24 64.322 33.24ZM74.0794 35.112C73.29 35.112 72.5754 34.92 71.9354 34.536C71.2954 34.152 70.7834 33.64 70.3994 33C70.026 32.3493 69.8394 31.624 69.8394 30.824C69.8394 30.024 70.026 29.304 70.3994 28.664C70.7834 28.0133 71.3007 27.5013 71.9514 27.128C72.602 26.744 73.3327 26.552 74.1434 26.552C74.5594 26.552 74.9594 26.6107 75.3434 26.728C75.7274 26.8347 76.0847 26.9947 76.4154 27.208V23.8L78.6074 23.432V35H76.4474V34.312C75.7647 34.8453 74.9754 35.112 74.0794 35.112ZM74.4314 33.24C74.8367 33.24 75.2047 33.1707 75.5354 33.032C75.8767 32.8933 76.17 32.696 76.4154 32.44V29.192C76.17 28.9467 75.8767 28.7547 75.5354 28.616C75.194 28.4773 74.826 28.408 74.4314 28.408C73.9727 28.408 73.5567 28.5147 73.1834 28.728C72.8207 28.9307 72.5327 29.2187 72.3194 29.592C72.106 29.9547 71.9994 30.3653 71.9994 30.824C71.9994 31.2827 72.106 31.6933 72.3194 32.056C72.5327 32.4187 72.8207 32.7067 73.1834 32.92C73.5567 33.1333 73.9727 33.24 74.4314 33.24ZM87.5035 35.128C86.5755 35.128 85.8715 34.92 85.3915 34.504C84.9222 34.0773 84.6875 33.4587 84.6875 32.648V28.488H82.9755V26.664H84.6875V24.536L86.8795 24.04V26.664H89.2635V28.488H86.8795V32.2C86.8795 32.584 86.9648 32.8613 87.1355 33.032C87.3062 33.192 87.6048 33.272 88.0315 33.272C88.2448 33.272 88.4368 33.2613 88.6075 33.24C88.7888 33.208 88.9862 33.1547 89.1995 33.08V34.888C88.9755 34.9627 88.6982 35.0213 88.3675 35.064C88.0368 35.1067 87.7488 35.128 87.5035 35.128ZM94.303 35.16C93.471 35.16 92.719 34.968 92.047 34.584C91.375 34.2 90.8417 33.6827 90.447 33.032C90.0523 32.3813 89.855 31.6507 89.855 30.84C89.855 30.0293 90.047 29.2987 90.431 28.648C90.8257 27.9867 91.359 27.464 92.031 27.08C92.7137 26.696 93.471 26.504 94.303 26.504C95.135 26.504 95.887 26.696 96.559 27.08C97.2417 27.464 97.775 27.9867 98.159 28.648C98.5537 29.2987 98.751 30.0293 98.751 30.84C98.751 31.6507 98.5537 32.3813 98.159 33.032C97.775 33.6827 97.247 34.2 96.575 34.584C95.903 34.968 95.1457 35.16 94.303 35.16ZM94.303 33.256C94.7403 33.256 95.1297 33.1493 95.471 32.936C95.823 32.7227 96.1003 32.4347 96.303 32.072C96.5163 31.6987 96.623 31.288 96.623 30.84C96.623 30.3813 96.5163 29.9707 96.303 29.608C96.1003 29.2453 95.823 28.9573 95.471 28.744C95.1297 28.52 94.7403 28.408 94.303 28.408C93.8763 28.408 93.487 28.52 93.135 28.744C92.783 28.9573 92.5057 29.2453 92.303 29.608C92.1003 29.9707 91.999 30.3813 91.999 30.84C91.999 31.288 92.1003 31.6987 92.303 32.072C92.5057 32.4347 92.783 32.7227 93.135 32.936C93.487 33.1493 93.8763 33.256 94.303 33.256ZM103.461 35V23.8H108.725C109.482 23.8 110.144 23.928 110.709 24.184C111.285 24.44 111.728 24.8027 112.037 25.272C112.357 25.7307 112.517 26.264 112.517 26.872C112.517 27.3627 112.389 27.816 112.133 28.232C111.888 28.6373 111.552 28.968 111.125 29.224C111.669 29.48 112.101 29.8267 112.421 30.264C112.741 30.7013 112.901 31.1973 112.901 31.752C112.901 32.392 112.736 32.9573 112.405 33.448C112.085 33.9387 111.626 34.3227 111.029 34.6C110.442 34.8667 109.76 35 108.981 35H103.461ZM105.781 28.376H108.581C109.082 28.376 109.477 28.2587 109.765 28.024C110.064 27.7787 110.213 27.4533 110.213 27.048C110.213 26.6427 110.064 26.3227 109.765 26.088C109.477 25.8427 109.082 25.72 108.581 25.72H105.781V28.376ZM105.781 33.08H108.805C109.338 33.08 109.765 32.952 110.085 32.696C110.405 32.4293 110.565 32.0773 110.565 31.64C110.565 31.192 110.405 30.84 110.085 30.584C109.765 30.3173 109.338 30.184 108.805 30.184H105.781V33.08ZM117.036 35.144C116.438 35.144 115.91 35.0373 115.452 34.824C114.993 34.6 114.636 34.296 114.38 33.912C114.124 33.528 113.996 33.0853 113.996 32.584C113.996 31.784 114.294 31.1653 114.892 30.728C115.5 30.28 116.332 30.056 117.388 30.056C118.113 30.056 118.796 30.168 119.436 30.392V29.784C119.436 29.304 119.286 28.9413 118.988 28.696C118.689 28.4507 118.252 28.328 117.676 28.328C117.324 28.328 116.945 28.3867 116.54 28.504C116.134 28.6107 115.665 28.7813 115.132 29.016L114.332 27.4C114.993 27.1013 115.622 26.8773 116.22 26.728C116.828 26.5787 117.436 26.504 118.044 26.504C119.164 26.504 120.033 26.776 120.652 27.32C121.281 27.8533 121.596 28.6107 121.596 29.592V35H119.436V34.408C119.094 34.664 118.726 34.8507 118.332 34.968C117.937 35.0853 117.505 35.144 117.036 35.144ZM116.076 32.536C116.076 32.856 116.214 33.112 116.492 33.304C116.769 33.4853 117.137 33.576 117.596 33.576C117.958 33.576 118.294 33.5333 118.604 33.448C118.913 33.352 119.19 33.2133 119.436 33.032V31.816C119.169 31.7093 118.892 31.6293 118.604 31.576C118.316 31.5227 118.006 31.496 117.676 31.496C117.174 31.496 116.78 31.592 116.492 31.784C116.214 31.9653 116.076 32.216 116.076 32.536ZM127.447 38.424C126.807 38.424 126.188 38.3547 125.591 38.216C124.993 38.088 124.455 37.9013 123.975 37.656L124.743 35.96C125.201 36.184 125.649 36.3493 126.087 36.456C126.524 36.5627 126.961 36.616 127.399 36.616C128.049 36.616 128.54 36.4773 128.871 36.2C129.212 35.9227 129.383 35.5067 129.383 34.952V34.296C128.7 34.7973 127.937 35.048 127.095 35.048C126.305 35.048 125.591 34.8613 124.951 34.488C124.321 34.104 123.815 33.5867 123.431 32.936C123.057 32.2853 122.871 31.5653 122.871 30.776C122.871 29.9867 123.057 29.272 123.431 28.632C123.815 27.992 124.332 27.4853 124.983 27.112C125.633 26.728 126.359 26.536 127.159 26.536C127.564 26.536 127.959 26.5947 128.343 26.712C128.727 26.8293 129.084 26.9947 129.415 27.208V26.664H131.575V34.984C131.575 36.0827 131.217 36.9307 130.503 37.528C129.799 38.1253 128.78 38.424 127.447 38.424ZM127.431 33.192C127.836 33.192 128.204 33.128 128.535 33C128.865 32.8613 129.148 32.6693 129.383 32.424V29.16C129.148 28.9253 128.86 28.744 128.519 28.616C128.188 28.4773 127.831 28.408 127.447 28.408C126.988 28.408 126.577 28.5147 126.215 28.728C125.852 28.9307 125.564 29.2133 125.351 29.576C125.137 29.928 125.031 30.328 125.031 30.776C125.031 31.2347 125.132 31.6453 125.335 32.008C125.548 32.3707 125.836 32.6587 126.199 32.872C126.572 33.0853 126.983 33.192 127.431 33.192Z" fill="white"/>
</g>
<defs>
<filter id="filter0_d_1_55" x="0" y="0" width="181" height="62" filterUnits="userSpaceOnUse" color-interpolation-filters="sRGB">
<feFlood flood-opacity="0" result="BackgroundImageFix"/>
<feColorMatrix in="SourceAlpha" type="matrix" values="0 0 0 0 0 0 0 0 0 0 0 0 0 0 0 0 0 0 127 0" result="hardAlpha"/>
<feOffset dy="2"/>
<feGaussianBlur stdDeviation="4"/>
<feComposite in2="hardAlpha" operator="out"/>
<feColorMatrix type="matrix" values="0 0 0 0 0 0 0 0 0 0 0 0 0 0 0 0 0 0 0.15 0"/>
<feBlend mode="normal" in2="BackgroundImageFix" result="effect1_dropShadow_1_55"/>
<feBlend mode="normal" in="SourceGraphic" in2="effect1_dropShadow_1_55" result="shape"/>
</filter>
</defs>
</svg>
