<svg width="44" height="44" viewBox="0 0 44 44" fill="none" xmlns="http://www.w3.org/2000/svg">
<path fill-rule="evenodd" clip-rule="evenodd" d="M20.8 14.1999C19.0496 14.1999 17.3709 14.8953 16.1331 16.133C14.8954 17.3708 14.2 19.0495 14.2 20.7999C14.2 22.5504 14.8954 24.2291 16.1331 25.4668C17.3709 26.7046 19.0496 27.3999 20.8 27.3999C22.5505 27.3999 24.2292 26.7046 25.4669 25.4668C26.7047 24.2291 27.4 22.5504 27.4 20.7999C27.4 19.0495 26.7047 17.3708 25.4669 16.133C24.2292 14.8953 22.5505 14.1999 20.8 14.1999ZM12.4 20.7999C12.4001 19.4567 12.7224 18.1331 13.3397 16.9402C13.957 15.7473 14.8513 14.7197 15.9478 13.9438C17.0442 13.1679 18.3107 12.6663 19.6411 12.481C20.9714 12.2956 22.3268 12.4321 23.5936 12.8788C24.8603 13.3255 26.0014 14.0694 26.9213 15.0482C27.8411 16.027 28.5128 17.2122 28.88 18.5042C29.2472 19.7962 29.2993 21.1575 29.0317 22.4738C28.7642 23.79 28.1849 25.023 27.3424 26.0691L31.336 30.0639C31.4244 30.1463 31.4954 30.2457 31.5446 30.3561C31.5938 30.4665 31.6202 30.5857 31.6223 30.7065C31.6245 30.8273 31.6022 30.9474 31.557 31.0594C31.5117 31.1715 31.4443 31.2733 31.3589 31.3588C31.2734 31.4442 31.1716 31.5116 31.0595 31.5569C30.9475 31.6021 30.8274 31.6244 30.7066 31.6222C30.5858 31.6201 30.4666 31.5937 30.3562 31.5445C30.2458 31.4953 30.1464 31.4244 30.064 31.3359L26.0692 27.3423C24.8351 28.3364 23.3449 28.9611 21.7708 29.1442C20.1968 29.3274 18.603 29.0615 17.1736 28.3774C15.7442 27.6932 14.5374 26.6187 13.6928 25.2779C12.8481 23.937 12.3999 22.3846 12.4 20.7999Z" fill="#141414"/>
</svg>
