<svg width="97" height="32" viewBox="0 0 97 32" fill="none" xmlns="http://www.w3.org/2000/svg">
<rect x="0.5" y="0.5" width="96" height="31" rx="15.5" fill="white"/>
<rect x="0.5" y="0.5" width="96" height="31" rx="15.5" stroke="#23222A"/>
<path d="M21.136 22V10.8H26.208C26.9547 10.8 27.6053 10.9387 28.16 11.216C28.7253 11.4933 29.1627 11.8827 29.472 12.384C29.792 12.8747 29.952 13.4507 29.952 14.112C29.952 14.848 29.744 15.4827 29.328 16.016C28.912 16.5493 28.352 16.9333 27.648 17.168L30.144 22H28.288L25.968 17.408H22.816V22H21.136ZM22.816 16H26.08C26.7413 16 27.2693 15.8347 27.664 15.504C28.0693 15.1627 28.272 14.704 28.272 14.128C28.272 13.5733 28.0693 13.1253 27.664 12.784C27.2693 12.4427 26.7413 12.272 26.08 12.272H22.816V16ZM34.9105 22.144C34.1105 22.144 33.3852 21.9573 32.7345 21.584C32.0945 21.2107 31.5825 20.704 31.1985 20.064C30.8252 19.424 30.6385 18.7093 30.6385 17.92C30.6385 17.1413 30.8198 16.4373 31.1825 15.808C31.5452 15.168 32.0358 14.6613 32.6545 14.288C33.2732 13.904 33.9612 13.712 34.7185 13.712C35.4758 13.712 36.1478 13.904 36.7345 14.288C37.3212 14.6613 37.7852 15.1733 38.1265 15.824C38.4785 16.464 38.6545 17.1893 38.6545 18V18.448H32.2385C32.3238 18.896 32.4892 19.296 32.7345 19.648C32.9905 20 33.3105 20.2773 33.6945 20.48C34.0892 20.6827 34.5158 20.784 34.9745 20.784C35.3692 20.784 35.7478 20.7253 36.1105 20.608C36.4838 20.48 36.7932 20.2987 37.0385 20.064L38.0625 21.072C37.5825 21.4347 37.0865 21.7067 36.5745 21.888C36.0732 22.0587 35.5185 22.144 34.9105 22.144ZM32.2545 17.248H37.0705C37.0065 16.8213 36.8572 16.448 36.6225 16.128C36.3985 15.7973 36.1158 15.5413 35.7745 15.36C35.4438 15.168 35.0812 15.072 34.6865 15.072C34.2812 15.072 33.9078 15.1627 33.5665 15.344C33.2252 15.5253 32.9372 15.7813 32.7025 16.112C32.4785 16.432 32.3292 16.8107 32.2545 17.248ZM40.1784 22V10.8L41.7784 10.496V22H40.1784ZM47.5668 22.144C46.7668 22.144 46.0414 21.9573 45.3908 21.584C44.7508 21.2107 44.2388 20.704 43.8548 20.064C43.4814 19.424 43.2948 18.7093 43.2948 17.92C43.2948 17.1413 43.4761 16.4373 43.8388 15.808C44.2014 15.168 44.6921 14.6613 45.3108 14.288C45.9294 13.904 46.6174 13.712 47.3748 13.712C48.1321 13.712 48.8041 13.904 49.3908 14.288C49.9774 14.6613 50.4414 15.1733 50.7828 15.824C51.1348 16.464 51.3108 17.1893 51.3108 18V18.448H44.8948C44.9801 18.896 45.1454 19.296 45.3908 19.648C45.6468 20 45.9668 20.2773 46.3508 20.48C46.7454 20.6827 47.1721 20.784 47.6308 20.784C48.0254 20.784 48.4041 20.7253 48.7668 20.608C49.1401 20.48 49.4494 20.2987 49.6948 20.064L50.7188 21.072C50.2388 21.4347 49.7428 21.7067 49.2308 21.888C48.7294 22.0587 48.1748 22.144 47.5668 22.144ZM44.9108 17.248H49.7268C49.6628 16.8213 49.5134 16.448 49.2788 16.128C49.0548 15.7973 48.7721 15.5413 48.4308 15.36C48.1001 15.168 47.7374 15.072 47.3428 15.072C46.9374 15.072 46.5641 15.1627 46.2228 15.344C45.8814 15.5253 45.5934 15.7813 45.3588 16.112C45.1348 16.432 44.9854 16.8107 44.9108 17.248ZM55.3013 22.144C54.7146 22.144 54.1973 22.0427 53.7493 21.84C53.3013 21.6267 52.9493 21.3333 52.6933 20.96C52.4373 20.5867 52.3092 20.1547 52.3092 19.664C52.3092 18.896 52.6026 18.2933 53.1893 17.856C53.7759 17.408 54.5813 17.184 55.6053 17.184C56.4053 17.184 57.1466 17.3387 57.8293 17.648V16.784C57.8293 16.1973 57.6586 15.76 57.3173 15.472C56.9866 15.184 56.4959 15.04 55.8453 15.04C55.4719 15.04 55.0826 15.0987 54.6773 15.216C54.2719 15.3227 53.8186 15.4933 53.3173 15.728L52.7253 14.528C53.3439 14.24 53.9199 14.032 54.4533 13.904C54.9866 13.7653 55.5253 13.696 56.0693 13.696C57.1253 13.696 57.9413 13.9467 58.5173 14.448C59.1039 14.9493 59.3973 15.664 59.3973 16.592V22H57.8293V21.296C57.4666 21.584 57.0773 21.7973 56.6613 21.936C56.2453 22.0747 55.7919 22.144 55.3013 22.144ZM53.8453 19.632C53.8453 20.0267 54.0106 20.3467 54.3413 20.592C54.6826 20.8267 55.1253 20.944 55.6693 20.944C56.0959 20.944 56.4853 20.8853 56.8373 20.768C57.1999 20.64 57.5306 20.4427 57.8293 20.176V18.8C57.5199 18.6187 57.1946 18.4907 56.8533 18.416C56.5226 18.3307 56.1493 18.288 55.7333 18.288C55.1466 18.288 54.6826 18.4107 54.3413 18.656C54.0106 18.8907 53.8453 19.216 53.8453 19.632ZM64.0409 22.16C63.3369 22.16 62.6755 22.0587 62.0569 21.856C61.4489 21.6427 60.9209 21.344 60.4729 20.96L61.3529 19.904C61.7689 20.2347 62.1955 20.4907 62.6329 20.672C63.0809 20.8427 63.5342 20.928 63.9929 20.928C64.5689 20.928 65.0382 20.816 65.4009 20.592C65.7635 20.368 65.9449 20.0747 65.9449 19.712C65.9449 19.4133 65.8382 19.1787 65.6249 19.008C65.4115 18.8373 65.0809 18.72 64.6329 18.656L63.1609 18.448C62.3502 18.3307 61.7422 18.08 61.3369 17.696C60.9315 17.312 60.7289 16.8 60.7289 16.16C60.7289 15.6693 60.8622 15.2427 61.1289 14.88C61.3955 14.5067 61.7689 14.2187 62.2489 14.016C62.7289 13.8027 63.2889 13.696 63.9289 13.696C64.5155 13.696 65.0809 13.7813 65.6249 13.952C66.1689 14.1227 66.6915 14.3893 67.1929 14.752L66.3769 15.808C65.9289 15.5093 65.4915 15.2907 65.0649 15.152C64.6489 15.0133 64.2275 14.944 63.8009 14.944C63.3102 14.944 62.9155 15.0507 62.6169 15.264C62.3182 15.4667 62.1689 15.7333 62.1689 16.064C62.1689 16.3627 62.2702 16.5973 62.4729 16.768C62.6862 16.928 63.0329 17.04 63.5129 17.104L64.9849 17.312C65.7955 17.4293 66.4089 17.68 66.8249 18.064C67.2409 18.4373 67.4489 18.944 67.4489 19.584C67.4489 20.0747 67.2995 20.5173 67.0009 20.912C66.7022 21.296 66.2969 21.6 65.7849 21.824C65.2729 22.048 64.6915 22.16 64.0409 22.16ZM72.6605 22.144C71.8605 22.144 71.1352 21.9573 70.4845 21.584C69.8445 21.2107 69.3325 20.704 68.9485 20.064C68.5752 19.424 68.3885 18.7093 68.3885 17.92C68.3885 17.1413 68.5698 16.4373 68.9325 15.808C69.2952 15.168 69.7858 14.6613 70.4045 14.288C71.0232 13.904 71.7112 13.712 72.4685 13.712C73.2258 13.712 73.8978 13.904 74.4845 14.288C75.0712 14.6613 75.5352 15.1733 75.8765 15.824C76.2285 16.464 76.4045 17.1893 76.4045 18V18.448H69.9885C70.0738 18.896 70.2392 19.296 70.4845 19.648C70.7405 20 71.0605 20.2773 71.4445 20.48C71.8392 20.6827 72.2658 20.784 72.7245 20.784C73.1192 20.784 73.4978 20.7253 73.8605 20.608C74.2338 20.48 74.5432 20.2987 74.7885 20.064L75.8125 21.072C75.3325 21.4347 74.8365 21.7067 74.3245 21.888C73.8232 22.0587 73.2685 22.144 72.6605 22.144ZM70.0045 17.248H74.8205C74.7565 16.8213 74.6072 16.448 74.3725 16.128C74.1485 15.7973 73.8658 15.5413 73.5245 15.36C73.1938 15.168 72.8312 15.072 72.4365 15.072C72.0312 15.072 71.6578 15.1627 71.3165 15.344C70.9752 15.5253 70.6872 15.7813 70.4525 16.112C70.2285 16.432 70.0792 16.8107 70.0045 17.248Z" fill="#23222A"/>
</svg>
