<svg width="44" height="44" viewBox="0 0 44 44" fill="none" xmlns="http://www.w3.org/2000/svg">
<rect width="44" height="44" rx="22" fill="#23222A"/>
<path d="M25.75 20.5V16C25.75 15.0054 25.3549 14.0516 24.6516 13.3483C23.9484 12.6451 22.9945 12.25 22 12.25C21.0054 12.25 20.0516 12.6451 19.3483 13.3483C18.6451 14.0516 18.25 15.0054 18.25 16V20.5M29.606 18.507L30.869 30.507C30.939 31.172 30.419 31.75 29.75 31.75H14.25C14.0922 31.7502 13.9361 31.7171 13.7919 31.6531C13.6477 31.589 13.5186 31.4953 13.413 31.3781C13.3074 31.2608 13.2276 31.1227 13.1788 30.9726C13.1301 30.8226 13.1134 30.6639 13.13 30.507L14.394 18.507C14.4231 18.2306 14.5536 17.9747 14.7602 17.7888C14.9669 17.6028 15.235 17.4999 15.513 17.5H28.487C29.063 17.5 29.546 17.935 29.606 18.507ZM18.625 20.5C18.625 20.5995 18.5855 20.6948 18.5152 20.7652C18.4448 20.8355 18.3494 20.875 18.25 20.875C18.1505 20.875 18.0551 20.8355 17.9848 20.7652C17.9145 20.6948 17.875 20.5995 17.875 20.5C17.875 20.4005 17.9145 20.3052 17.9848 20.2348C18.0551 20.1645 18.1505 20.125 18.25 20.125C18.3494 20.125 18.4448 20.1645 18.5152 20.2348C18.5855 20.3052 18.625 20.4005 18.625 20.5ZM26.125 20.5C26.125 20.5995 26.0855 20.6948 26.0152 20.7652C25.9448 20.8355 25.8494 20.875 25.75 20.875C25.6505 20.875 25.5551 20.8355 25.4848 20.7652C25.4145 20.6948 25.375 20.5995 25.375 20.5C25.375 20.4005 25.4145 20.3052 25.4848 20.2348C25.5551 20.1645 25.6505 20.125 25.75 20.125C25.8494 20.125 25.9448 20.1645 26.0152 20.2348C26.0855 20.3052 26.125 20.4005 26.125 20.5Z" stroke="white" stroke-width="1.5" stroke-linecap="round" stroke-linejoin="round"/>
</svg>
