<svg width="80" height="80" viewBox="0 0 80 80" fill="none" xmlns="http://www.w3.org/2000/svg">
<circle cx="40" cy="40" r="40" transform="rotate(90 40 40)" fill="#23222A"/>
<path d="M41 49.5333L41 27.6667C41 27.3778 40.9055 27.1389 40.7166 26.95C40.5278 26.7611 40.2889 26.6667 40 26.6667C39.7111 26.6667 39.4722 26.7611 39.2833 26.95C39.0944 27.1389 39 27.3778 39 27.6667L39 49.5333L32.7667 43.3C32.5667 43.1 32.3333 43 32.0666 43C31.8 43 31.5666 43.1 31.3666 43.3C31.1666 43.5 31.0666 43.7333 31.0667 44C31.0667 44.2667 31.1667 44.5 31.3667 44.7L39.3 52.6333C39.4111 52.7445 39.5222 52.8222 39.6333 52.8667C39.7444 52.9111 39.8667 52.9333 40 52.9333C40.1333 52.9333 40.2555 52.9111 40.3667 52.8667C40.4778 52.8222 40.5889 52.7445 40.7 52.6333L48.6333 44.7C48.8333 44.5 48.9333 44.2667 48.9333 44C48.9333 43.7333 48.8333 43.5 48.6333 43.3C48.4333 43.1 48.2 43 47.9333 43C47.6667 43 47.4333 43.1 47.2333 43.3L41 49.5333Z" fill="white"/>
</svg>
