<svg width="18" height="22" viewBox="0 0 18 22" fill="none" xmlns="http://www.w3.org/2000/svg">
<path fill-rule="evenodd" clip-rule="evenodd" d="M11.615 0.59498C11.7614 0.676477 11.8763 0.804661 11.9413 0.959084C12.0064 1.11351 12.0179 1.28527 11.974 1.44698L9.98195 8.74998H17.25C17.3961 8.74999 17.5391 8.79271 17.6613 8.87288C17.7835 8.95305 17.8796 9.06719 17.9378 9.20125C17.9961 9.33532 18.0138 9.48348 17.989 9.62751C17.9641 9.77154 17.8977 9.90518 17.798 10.012L7.29795 21.262C7.18359 21.3848 7.03135 21.4657 6.86558 21.4917C6.69981 21.5178 6.53009 21.4875 6.38357 21.4057C6.23704 21.3239 6.12218 21.1954 6.05735 21.0406C5.99252 20.8858 5.98146 20.7138 6.02595 20.552L8.01795 13.25H0.749953C0.603792 13.25 0.460818 13.2073 0.338607 13.1271C0.216397 13.0469 0.120276 12.9328 0.0620594 12.7987C0.00384316 12.6646 -0.0139308 12.5165 0.0109226 12.3724C0.035776 12.2284 0.102173 12.0948 0.201953 11.988L10.702 0.73798C10.8163 0.615626 10.9683 0.535073 11.1338 0.509157C11.2993 0.483241 11.4687 0.513453 11.615 0.59498Z" fill="url(#paint0_linear_1_152)"/>
<defs>
<linearGradient id="paint0_linear_1_152" x1="0" y1="11.0005" x2="17.9999" y2="11.0005" gradientUnits="userSpaceOnUse">
<stop stop-color="#EC008C"/>
<stop offset="1" stop-color="#FC6767"/>
</linearGradient>
</defs>
</svg>
