<svg width="28" height="28" viewBox="0 0 28 28" fill="none" xmlns="http://www.w3.org/2000/svg">
<path d="M26.2034 7.00008C25.305 7.40841 24.3367 7.67675 23.3334 7.80508C24.36 7.18675 25.1534 6.20675 25.5267 5.02841C24.5584 5.61175 23.485 6.02008 22.3534 6.25341C21.4317 5.25008 20.1367 4.66675 18.6667 4.66675C15.925 4.66675 13.685 6.90675 13.685 9.67175C13.685 10.0684 13.7317 10.4534 13.8134 10.8151C9.66003 10.6051 5.96169 8.61008 3.50003 5.58841C3.06836 6.32341 2.82336 7.18675 2.82336 8.09675C2.82336 9.83508 3.69836 11.3751 5.05169 12.2501C4.22336 12.2501 3.45336 12.0167 2.77669 11.6667V11.7017C2.77669 14.1284 4.50336 16.1584 6.79003 16.6134C6.05587 16.8143 5.28514 16.8423 4.53836 16.6951C4.85523 17.6896 5.47582 18.5599 6.31288 19.1835C7.14994 19.8071 8.16138 20.1527 9.20503 20.1717C7.43593 21.5723 5.24302 22.3293 2.98669 22.3184C2.59003 22.3184 2.19336 22.2951 1.79669 22.2484C4.01336 23.6717 6.65003 24.5001 9.47336 24.5001C18.6667 24.5001 23.7184 16.8701 23.7184 10.2551C23.7184 10.0334 23.7184 9.82341 23.7067 9.60175C24.6867 8.90175 25.5267 8.01508 26.2034 7.00008Z" fill="#B4B4B4"/>
</svg>
