<svg width="60" height="58" viewBox="0 0 60 58" fill="none" xmlns="http://www.w3.org/2000/svg">
<path d="M19.6077 35L9.85382 51.8941L20.2461 57.8941L30 41L39.7538 57.8941L50.1461 51.8941L40.3923 35H59.9V23H40.3923L50.1461 6.10583L39.7538 0.105835L30 17L20.2461 0.105835L9.85381 6.10583L19.6077 23H0.0999756V35H19.6077Z" fill="#23222A"/>
<path d="M19.6077 35L9.85382 51.8941L20.2461 57.8941L30 41L39.7538 57.8941L50.1461 51.8941L40.3923 35H59.9V23H40.3923L50.1461 6.10583L39.7538 0.105835L30 17L20.2461 0.105835L9.85381 6.10583L19.6077 23H0.0999756V35H19.6077Z" fill="url(#paint0_linear_1_43)"/>
<defs>
<linearGradient id="paint0_linear_1_43" x1="0.0999756" y1="29" x2="59.9" y2="29" gradientUnits="userSpaceOnUse">
<stop stop-color="#EC008C"/>
<stop offset="1" stop-color="#FC6767"/>
</linearGradient>
</defs>
</svg>
